<?xml version="1.0" encoding="utf-8"?>
<svg xmlns="http://www.w3.org/2000/svg" viewBox="302.8805 10.3701 690.609 126.085" width="690.609px" height="126.085px"><defs><clipPath id="clip_7"><path transform="matrix(1,0,0,-1,0,240)" d="M0 240H1000V0H0Z"/></clipPath></defs><g id="object-0" transform="matrix(1, 0, 0, 1, -7.105427357601002e-15, 0)"><g transform="matrix(1, 0, 0, 1, 34.900445, -47.120923)" clip-path="url(#clip_7)"><path d="M 281.519 121.627 C 281.519 127.735 284.573 130.789 290.681 130.789 L 305.952 130.789 C 312.06 130.789 315.114 127.735 315.114 121.627 L 315.114 78.87 C 315.114 72.761 312.06 69.708 305.952 69.708 L 290.681 69.708 C 284.573 69.708 281.519 72.761 281.519 78.87 L 281.519 121.627 Z M 327.33 121.627 C 327.33 135.88 320.204 143.005 305.952 143.005 L 290.681 143.005 C 276.428 143.005 269.303 135.88 269.303 121.627 L 269.303 78.87 C 269.303 64.618 276.428 57.491 290.681 57.491 L 305.952 57.491 C 320.204 57.491 327.33 64.618 327.33 78.87 L 327.33 121.627 Z" fill="#1d1d1b"/><path d="M 343.675 143.006 L 343.675 130.79 L 371.161 130.79 C 375.233 130.79 377.27 128.754 377.27 124.681 C 377.27 120.202 375.233 117.963 371.161 117.963 L 361.999 117.963 C 349.783 117.963 343.675 112.059 343.675 100.249 C 343.675 88.032 349.783 81.924 361.999 81.924 L 389.486 81.924 L 389.486 94.141 L 361.999 94.141 C 357.927 94.141 355.891 96.177 355.891 100.249 C 355.891 103.914 357.927 105.746 361.999 105.746 L 371.161 105.746 C 383.378 105.746 389.486 112.059 389.486 124.681 C 389.486 136.898 383.378 143.006 371.161 143.006 L 343.675 143.006 Z" fill="#1d1d1b"/><path d="M 418.047 121.627 C 418.047 127.735 421.101 130.789 427.209 130.789 L 451.642 130.789 L 451.642 143.005 L 427.209 143.005 C 412.956 143.005 405.831 135.88 405.831 121.627 L 405.831 103.302 C 405.831 89.05 412.956 81.924 427.209 81.924 L 451.642 81.924 L 451.642 94.14 L 427.209 94.14 C 421.101 94.14 418.047 97.194 418.047 103.302 L 418.047 121.627 Z" fill="#1d1d1b"/><path d="M 504.696 127.735 L 504.696 121.627 C 500.624 119.591 495.534 118.573 489.425 118.573 C 483.318 118.573 480.264 120.61 480.264 124.681 C 480.264 128.754 483.318 130.789 489.425 130.789 C 495.534 130.789 500.624 129.772 504.696 127.735 M 504.696 106.357 C 504.696 98.213 500.624 94.14 492.48 94.14 L 474.155 94.14 L 474.155 81.924 L 492.48 81.924 C 508.768 81.924 516.913 90.068 516.913 106.357 L 516.913 143.006 L 506.529 143.006 L 504.696 136.897 C 500.624 140.969 495.534 143.006 489.425 143.006 C 475.173 143.006 468.048 136.897 468.048 124.681 C 468.048 112.464 475.173 106.357 489.425 106.357 C 495.534 106.357 500.624 108.393 504.696 112.464 L 504.696 106.357 Z" fill="#1d1d1b"/><path d="M 545.474 143.006 L 533.258 143.006 L 533.258 81.924 L 543.642 81.924 L 545.474 88.032 C 549.545 83.961 554.636 81.924 560.745 81.924 L 563.799 81.924 L 563.799 94.141 L 560.745 94.141 C 554.636 94.141 549.545 95.159 545.474 97.194 L 545.474 143.006 Z" fill="#1d1d1b"/><path d="M 617.865 121.627 C 617.865 127.735 620.92 130.789 627.027 130.789 L 639.244 130.789 C 645.352 130.789 648.406 127.735 648.406 121.627 L 648.406 106.356 L 630.082 106.356 L 630.082 94.14 L 660.623 94.14 L 660.623 121.627 C 660.623 135.88 653.496 143.005 639.244 143.005 L 627.027 143.005 C 612.774 143.005 605.649 135.88 605.649 121.627 L 605.649 78.87 C 605.649 64.618 612.774 57.491 627.027 57.491 L 660.623 57.491 L 660.623 69.708 L 627.027 69.708 C 620.92 69.708 617.865 72.761 617.865 78.87 L 617.865 121.627 Z" fill="#1d1d1b"/><path d="M 689.184 124.681 C 689.184 128.754 691.22 130.789 695.292 130.789 L 707.509 130.789 C 711.58 130.789 713.617 128.754 713.617 124.681 L 713.617 100.248 C 713.617 96.584 711.58 94.751 707.509 94.751 L 695.292 94.751 C 691.22 94.751 689.184 96.584 689.184 100.248 L 689.184 124.681 Z M 725.833 124.681 C 725.833 136.897 719.725 143.006 707.509 143.006 L 695.292 143.006 C 683.077 143.006 676.968 136.897 676.968 124.681 L 676.968 100.248 C 676.968 88.032 683.077 81.924 695.292 81.924 L 707.509 81.924 C 719.725 81.924 725.833 88.032 725.833 100.248 L 725.833 124.681 Z" fill="#1d1d1b"/><path d="M 752.562 81.924 L 754.394 88.032 C 756.43 83.961 760.502 81.924 766.611 81.924 C 773.655 81.924 778.867 84.571 782.248 89.864 C 787.052 84.571 792.427 81.924 798.374 81.924 C 813.847 81.924 821.584 89.05 821.584 103.302 L 821.584 143.006 L 809.368 143.006 L 809.368 103.302 C 809.368 97.194 805.886 94.14 798.923 94.14 C 793.996 94.14 790.35 96.177 787.99 100.248 L 787.99 143.006 L 775.773 143.006 L 775.773 99.637 C 774.347 95.973 771.293 94.14 766.611 94.14 C 760.502 94.14 756.43 96.177 754.394 100.248 L 754.394 143.006 L 742.178 143.006 L 742.178 81.924 L 752.562 81.924 Z" fill="#1d1d1b"/><path d="M 850.144 107.579 L 874.577 107.579 L 874.577 103.303 C 874.577 97.195 871.523 94.141 865.415 94.141 L 859.306 94.141 C 853.199 94.141 850.144 97.195 850.144 103.303 L 850.144 107.579 Z M 850.144 117.352 L 850.144 121.628 C 850.144 127.736 853.199 130.79 859.306 130.79 L 883.74 130.79 L 883.74 143.006 L 859.306 143.006 C 845.053 143.006 837.928 135.881 837.928 121.628 L 837.928 103.303 C 837.928 89.051 845.053 81.925 859.306 81.925 L 865.415 81.925 C 879.666 81.925 886.793 89.051 886.793 103.303 L 886.793 117.352 L 850.144 117.352 Z" fill="#1d1d1b"/><path d="M 952.003 81.924 L 952.003 94.14 L 919.019 130.789 L 952.003 130.789 L 952.003 143.006 L 903.138 143.006 L 903.138 130.789 L 936.122 94.14 L 903.138 94.14 L 903.138 81.924 L 952.003 81.924 Z" fill="#1d1d1b"/><path d="M 273.188 164.479 L 273.188 169.687 L 278.396 169.687 C 279.553 169.687 280.132 169.108 280.132 167.951 L 280.132 166.214 C 280.132 165.057 279.553 164.479 278.396 164.479 L 273.188 164.479 Z M 273.188 174.895 L 273.188 183.575 L 267.98 183.575 L 267.98 159.271 L 278.396 159.271 C 283.025 159.271 285.34 161.585 285.34 166.214 L 285.34 167.951 C 285.34 172.581 283.025 174.895 278.396 174.895 L 273.188 174.895 Z" fill="#1d1d1b"/><path d="M 295.797 164.479 L 295.797 169.687 L 301.005 169.687 C 302.162 169.687 302.741 169.108 302.741 167.951 L 302.741 166.214 C 302.741 165.057 302.162 164.479 301.005 164.479 L 295.797 164.479 Z M 299.269 174.895 L 295.797 174.895 L 295.797 183.575 L 290.589 183.575 L 290.589 159.271 L 301.005 159.271 C 305.634 159.271 307.949 161.585 307.949 166.214 L 307.949 167.951 C 307.949 170.787 306.884 172.789 304.755 173.958 L 307.949 183.575 L 302.741 183.575 L 299.269 174.895 Z" fill="#1d1d1b"/><path d="M 318.407 176.631 C 318.407 177.789 318.986 178.367 320.143 178.367 L 324.483 178.367 C 325.64 178.367 326.219 177.789 326.219 176.631 L 326.219 166.215 C 326.219 165.058 325.64 164.48 324.483 164.48 L 320.143 164.48 C 318.986 164.48 318.407 165.058 318.407 166.215 L 318.407 176.631 Z M 331.427 176.631 C 331.427 181.261 329.113 183.575 324.483 183.575 L 320.143 183.575 C 315.514 183.575 313.199 181.261 313.199 176.631 L 313.199 166.215 C 313.199 161.586 315.514 159.272 320.143 159.272 L 324.483 159.272 C 329.113 159.272 331.427 161.586 331.427 166.215 L 331.427 176.631 Z" fill="#1d1d1b"/><path d="M 348.829 166.215 C 348.829 165.058 348.25 164.48 347.093 164.48 L 341.885 164.48 L 341.885 178.367 L 347.093 178.367 C 348.25 178.367 348.829 177.789 348.829 176.631 L 348.829 166.215 Z M 347.093 159.272 C 351.722 159.272 354.037 161.586 354.037 166.215 L 354.037 176.631 C 354.037 181.261 351.722 183.575 347.093 183.575 L 336.677 183.575 L 336.677 159.272 L 347.093 159.272 Z" fill="#1d1d1b"/><path d="M 364.495 159.272 L 364.495 176.631 C 364.495 177.79 365.074 178.368 366.231 178.368 L 369.703 178.368 C 370.86 178.368 371.439 177.79 371.439 176.631 L 371.439 159.272 L 376.647 159.272 L 376.647 176.631 C 376.647 181.261 374.332 183.576 369.703 183.576 L 366.231 183.576 C 361.602 183.576 359.287 181.261 359.287 176.631 L 359.287 159.272 L 364.495 159.272 Z" fill="#1d1d1b"/><path d="M 387.104 176.631 C 387.104 177.789 387.683 178.367 388.84 178.367 L 397.52 178.367 L 397.52 183.575 L 388.84 183.575 C 384.211 183.575 381.896 181.261 381.896 176.631 L 381.896 166.215 C 381.896 161.586 384.211 159.272 388.84 159.272 L 397.52 159.272 L 397.52 164.48 L 388.84 164.48 C 387.683 164.48 387.104 165.058 387.104 166.215 L 387.104 176.631 Z" fill="#1d1d1b"/><path d="M 407.978 176.631 C 407.978 177.789 408.557 178.367 409.714 178.367 L 418.394 178.367 L 418.394 183.575 L 409.714 183.575 C 405.085 183.575 402.77 181.261 402.77 176.631 L 402.77 166.215 C 402.77 161.586 405.085 159.272 409.714 159.272 L 418.394 159.272 L 418.394 164.48 L 409.714 164.48 C 408.557 164.48 407.978 165.058 407.978 166.215 L 407.978 176.631 Z" fill="#1d1d1b"/><path d="M 428.852 183.575 L 423.644 183.575 L 423.644 159.271 L 428.852 159.271 L 428.852 183.575 Z" fill="#1d1d1b"/><path d="M 439.31 176.631 C 439.31 177.789 439.889 178.367 441.046 178.367 L 445.386 178.367 C 446.543 178.367 447.122 177.789 447.122 176.631 L 447.122 166.215 C 447.122 165.058 446.543 164.48 445.386 164.48 L 441.046 164.48 C 439.889 164.48 439.31 165.058 439.31 166.215 L 439.31 176.631 Z M 452.33 176.631 C 452.33 181.261 450.016 183.575 445.386 183.575 L 441.046 183.575 C 436.417 183.575 434.102 181.261 434.102 176.631 L 434.102 166.215 C 434.102 161.586 436.417 159.272 441.046 159.272 L 445.386 159.272 C 450.016 159.272 452.33 161.586 452.33 166.215 L 452.33 176.631 Z" fill="#1d1d1b"/><path d="M 462.788 159.272 L 471.468 174.028 L 471.468 159.272 L 476.676 159.272 L 476.676 183.576 L 471.468 183.576 L 462.788 168.82 L 462.788 183.576 L 457.58 183.576 L 457.58 159.272 L 462.788 159.272 Z" fill="#1d1d1b"/><path d="M 497.55 168.819 L 497.55 174.027 L 487.134 174.027 L 487.134 178.367 L 497.55 178.367 L 497.55 183.575 L 481.925 183.575 L 481.925 159.271 L 497.55 159.271 L 497.55 164.479 L 487.134 164.479 L 487.134 168.819 L 497.55 168.819 Z" fill="#1d1d1b"/><path d="M 502.8 183.575 L 502.8 178.367 L 513.216 178.367 C 514.373 178.367 514.951 177.789 514.951 176.631 L 514.951 175.763 C 514.951 174.606 514.373 174.027 513.216 174.027 L 509.743 174.027 C 505.114 174.027 502.8 171.713 502.8 167.083 L 502.8 166.215 C 502.8 161.586 505.114 159.271 509.743 159.271 L 520.159 159.271 L 520.159 164.479 L 509.743 164.479 C 508.586 164.479 508.008 165.057 508.008 166.215 L 508.008 167.083 C 508.008 168.24 508.586 168.819 509.743 168.819 L 513.216 168.819 C 517.845 168.819 520.159 171.134 520.159 175.763 L 520.159 176.631 C 520.159 181.261 517.845 183.575 513.216 183.575 L 502.8 183.575 Z" fill="#1d1d1b"/><path d="M 539.339 164.479 L 539.339 169.687 L 544.547 169.687 C 545.704 169.687 546.282 169.108 546.282 167.951 L 546.282 166.214 C 546.282 165.057 545.704 164.479 544.547 164.479 L 539.339 164.479 Z M 542.811 174.895 L 539.339 174.895 L 539.339 183.575 L 534.131 183.575 L 534.131 159.271 L 544.547 159.271 C 549.176 159.271 551.49 161.585 551.49 166.214 L 551.49 167.951 C 551.49 170.787 550.426 172.789 548.296 173.958 L 551.49 183.575 L 546.282 183.575 L 542.811 174.895 Z" fill="#1d1d1b"/><path d="M 563.407 173.159 L 569.171 173.159 L 566.289 164.479 L 563.407 173.159 Z M 577.573 183.575 L 572.365 183.575 L 570.75 178.367 L 561.827 178.367 L 560.213 183.575 L 555.005 183.575 L 562.296 159.271 L 570.282 159.271 L 577.573 183.575 Z" fill="#1d1d1b"/><path d="M 593.238 166.215 C 593.238 165.058 592.66 164.48 591.503 164.48 L 586.295 164.48 L 586.295 178.367 L 591.503 178.367 C 592.66 178.367 593.238 177.789 593.238 176.631 L 593.238 166.215 Z M 591.503 159.272 C 596.132 159.272 598.446 161.586 598.446 166.215 L 598.446 176.631 C 598.446 181.261 596.132 183.575 591.503 183.575 L 581.087 183.575 L 581.087 159.272 L 591.503 159.272 Z" fill="#1d1d1b"/><path d="M 608.904 183.575 L 603.696 183.575 L 603.696 159.271 L 608.904 159.271 L 608.904 183.575 Z" fill="#1d1d1b"/><path d="M 620.82 173.159 L 626.584 173.159 L 623.702 164.479 L 620.82 173.159 Z M 634.986 183.575 L 629.778 183.575 L 628.163 178.367 L 619.24 178.367 L 617.626 183.575 L 612.418 183.575 L 619.709 159.271 L 627.695 159.271 L 634.986 183.575 Z" fill="#1d1d1b"/><path d="M 643.708 178.367 L 654.124 178.367 L 654.124 183.575 L 638.5 183.575 L 638.5 159.271 L 643.708 159.271 L 643.708 178.367 Z" fill="#1d1d1b"/><path d="M 674.997 168.819 L 674.997 174.027 L 664.581 174.027 L 664.581 178.367 L 674.997 178.367 L 674.997 183.575 L 659.373 183.575 L 659.373 159.271 L 674.997 159.271 L 674.997 164.479 L 664.581 164.479 L 664.581 168.819 L 674.997 168.819 Z" fill="#1d1d1b"/><path d="M 680.247 183.575 L 680.247 178.367 L 690.663 178.367 C 691.82 178.367 692.398 177.789 692.398 176.631 L 692.398 175.763 C 692.398 174.606 691.82 174.027 690.663 174.027 L 687.19 174.027 C 682.561 174.027 680.247 171.713 680.247 167.083 L 680.247 166.215 C 680.247 161.586 682.561 159.271 687.19 159.271 L 697.606 159.271 L 697.606 164.479 L 687.19 164.479 C 686.033 164.479 685.455 165.057 685.455 166.215 L 685.455 167.083 C 685.455 168.24 686.033 168.819 687.19 168.819 L 690.663 168.819 C 695.292 168.819 697.606 171.134 697.606 175.763 L 697.606 176.631 C 697.606 181.261 695.292 183.575 690.663 183.575 L 680.247 183.575 Z" fill="#1d1d1b"/><path d="M 715.224 159.272 L 720.258 167.952 L 725.292 159.272 L 730.674 159.272 L 722.863 173.16 L 722.863 183.576 L 717.655 183.576 L 717.655 173.16 L 709.842 159.272 L 715.224 159.272 Z" fill="#1d1d1b"/><path d="M 760.269 159.272 L 760.269 164.48 L 754.194 164.48 L 754.194 183.576 L 748.986 183.576 L 748.986 164.48 L 742.91 164.48 L 742.91 159.272 L 760.269 159.272 Z" fill="#1d1d1b"/><path d="M 781.144 168.819 L 781.144 174.027 L 770.728 174.027 L 770.728 178.367 L 781.144 178.367 L 781.144 183.575 L 765.52 183.575 L 765.52 159.271 L 781.144 159.271 L 781.144 164.479 L 770.728 164.479 L 770.728 168.819 L 781.144 168.819 Z" fill="#1d1d1b"/><path d="M 791.602 178.367 L 802.018 178.367 L 802.018 183.575 L 786.394 183.575 L 786.394 159.271 L 791.602 159.271 L 791.602 178.367 Z" fill="#1d1d1b"/><path d="M 822.891 168.819 L 822.891 174.027 L 812.475 174.027 L 812.475 178.367 L 822.891 178.367 L 822.891 183.575 L 807.267 183.575 L 807.267 159.271 L 822.891 159.271 L 822.891 164.479 L 812.475 164.479 L 812.475 168.819 L 822.891 168.819 Z" fill="#1d1d1b"/><path d="M 842.027 159.272 L 847.235 159.272 L 840.812 183.576 L 832.826 183.576 L 826.403 159.272 L 831.611 159.272 L 836.819 178.368 L 842.027 159.272 Z" fill="#1d1d1b"/><path d="M 855.958 183.575 L 850.75 183.575 L 850.75 159.271 L 855.958 159.271 L 855.958 183.575 Z" fill="#1d1d1b"/><path d="M 861.207 183.575 L 861.207 178.367 L 871.623 178.367 C 872.78 178.367 873.358 177.789 873.358 176.631 L 873.358 175.763 C 873.358 174.606 872.78 174.027 871.623 174.027 L 868.15 174.027 C 863.521 174.027 861.207 171.713 861.207 167.083 L 861.207 166.215 C 861.207 161.586 863.521 159.271 868.15 159.271 L 878.566 159.271 L 878.566 164.479 L 868.15 164.479 C 866.993 164.479 866.415 165.057 866.415 166.215 L 866.415 167.083 C 866.415 168.24 866.993 168.819 868.15 168.819 L 871.623 168.819 C 876.252 168.819 878.566 171.134 878.566 175.763 L 878.566 176.631 C 878.566 181.261 876.252 183.575 871.623 183.575 L 861.207 183.575 Z" fill="#1d1d1b"/><path d="M 889.024 183.575 L 883.816 183.575 L 883.816 159.271 L 889.024 159.271 L 889.024 183.575 Z" fill="#1d1d1b"/><path d="M 908.162 159.272 L 913.37 159.272 L 906.947 183.576 L 898.961 183.576 L 892.538 159.272 L 897.746 159.272 L 902.954 178.368 L 908.162 159.272 Z" fill="#1d1d1b"/><path d="M 923.55 173.159 L 929.314 173.159 L 926.432 164.479 L 923.55 173.159 Z M 937.716 183.575 L 932.508 183.575 L 930.893 178.367 L 921.97 178.367 L 920.356 183.575 L 915.148 183.575 L 922.439 159.271 L 930.425 159.271 L 937.716 183.575 Z" fill="#1d1d1b"/><path d="M 941.23 183.575 L 941.23 178.367 L 951.646 178.367 C 952.803 178.367 953.381 177.789 953.381 176.631 L 953.381 175.763 C 953.381 174.606 952.803 174.027 951.646 174.027 L 948.173 174.027 C 943.544 174.027 941.23 171.713 941.23 167.083 L 941.23 166.215 C 941.23 161.586 943.544 159.271 948.173 159.271 L 958.589 159.271 L 958.589 164.479 L 948.173 164.479 C 947.016 164.479 946.438 165.057 946.438 166.215 L 946.438 167.083 C 946.438 168.24 947.016 168.819 948.173 168.819 L 951.646 168.819 C 956.275 168.819 958.589 171.134 958.589 175.763 L 958.589 176.631 C 958.589 181.261 956.275 183.575 951.646 183.575 L 941.23 183.575 Z" fill="#1d1d1b"/></g></g></svg>